<?xml version="1.0" encoding="UTF-8"?>
<svg width="92px" height="96px" viewBox="0 0 92 96" version="1.1" xmlns="http://www.w3.org/2000/svg" xmlns:xlink="http://www.w3.org/1999/xlink">
    <!-- Generator: Sketch 39.1 (31720) - http://www.bohemiancoding.com/sketch -->
    <title>thin-0658_cup_place_winner_award_prize_achievement</title>
    <desc>Created with Sketch.</desc>
    <defs></defs>
    <g id="Page-1" stroke="none" stroke-width="1" fill="none" fill-rule="evenodd">
        <g id="Picons" transform="translate(-2374.000000, -7596.000000)">
            <g id="thin-0658_cup_place_winner_award_prize_achievement" transform="translate(2372.000000, 7592.000000)">
                <g id="Group" transform="translate(4.000000, 4.000000)" stroke-width="4" stroke="#8A0BDB">
                    <polygon id="Shape" points="59.5716 93.946 28.6528 93.946 31.2248 84.7 56.9996 84.7"></polygon>
                    <path d="M18.3676,46.654 C11.3396,48.524 3.6864,42.7004 1.2772,33.6468 C-1.1316,24.5948 2.6132,15.74 9.64,13.8696 C11.5552,13.36 13.5164,13.4212 15.4056,13.9636" id="Shape"></path>
                    <path d="M69.858,46.654 C76.886,48.524 84.5388,42.7004 86.9484,33.6468 C89.3572,24.5944 85.6124,15.7396 78.586,13.8692 C76.6468,13.3532 74.6604,13.4228 72.7496,13.984" id="Shape"></path>
                    <path d="M69.7144,2.04 L18.5112,2.04 C16.8472,2.04 15.498,3.3888 15.498,5.0532 L15.498,33 C15.498,50.0716 28.334,63.96 44.112,63.96 C59.8908,63.96 72.7272,50.0716 72.7272,33 L72.7272,5.0528 C72.7276,3.3888 71.3784,2.04 69.7144,2.04 L69.7144,2.04 Z" id="Shape"></path>
                    <path d="M48.1532,24.9256 C43.498,11.6704 44.612,11.9868 40.066,24.9256 C25.8472,25.2104 26.5576,24.3 37.5608,32.556 C33.4496,46 32.7568,45.0804 44.11,37.264 C55.7656,45.2876 54.6684,45.6588 50.6576,32.556 C61.988,24.056 61.9584,25.202 48.1532,24.9256 L48.1532,24.9256 Z" id="Shape"></path>
                    <path d="M40.2224,84.7904 L40.2224,70.984" id="Shape"></path>
                    <path d="M48.0032,84.7904 L48.0032,70.984" id="Shape"></path>
                </g>
                <rect id="Rectangle-path" x="0.1172" y="3.9996" width="96" height="96"></rect>
            </g>
        </g>
    </g>
</svg>