<?xml version="1.0" encoding="UTF-8"?>
<svg width="98px" height="99px" viewBox="0 0 98 99" version="1.1" xmlns="http://www.w3.org/2000/svg" xmlns:xlink="http://www.w3.org/1999/xlink">
    <!-- Generator: Sketch 39.1 (31720) - http://www.bohemiancoding.com/sketch -->
    <title>thin-0673_ruller_dimension_length</title>
    <desc>Created with Sketch.</desc>
    <defs></defs>
    <g id="Page-1" stroke="none" stroke-width="1" fill="none" fill-rule="evenodd">
        <g id="Picons" transform="translate(-2370.000000, -7761.000000)">
            <g id="thin-0673_ruller_dimension_length" transform="translate(2372.000000, 7760.000000)">
                <g id="Group" transform="translate(0.000000, 4.000000)" stroke="#8A0BDB" stroke-width="4">
                    <path d="M3.2488,93.9988 L94,93.9988 L94,2.4228 L3.2488,93.9988 L3.2488,93.9988 Z M78,77.9988 L48.618,77.9988 L78,48.2616 L78,77.9988 L78,77.9988 Z" id="Shape"></path>
                    <path d="M26.2408,71.152 L34.5324,79.4436" id="Shape"></path>
                    <path d="M33.744,63.65 L38.1792,68.0868" id="Shape"></path>
                    <path d="M41.2448,56.148 L49.5388,64.4396" id="Shape"></path>
                    <path d="M48.748,48.6456 L53.1832,53.0816" id="Shape"></path>
                    <path d="M56.25,41.1428 L64.5428,49.4356" id="Shape"></path>
                    <path d="M63.752,33.6408 L68.1872,38.0788" id="Shape"></path>
                    <path d="M71.254,26.1396 L79.5468,34.4316" id="Shape"></path>
                </g>
                <rect id="Rectangle-path" x="0" y="3.9996" width="96" height="96"></rect>
            </g>
        </g>
    </g>
</svg>